# xmcd
#
# Track frame offsets:
#	150
#	14504
#	28002
#	40947
#	57894
#	73911
#	89374
#	106927
#	122306
#	136484
#
# Disc length: 2072 seconds
#
# Revision: 0
# Processed by: cddbd v1.5.2PL0 Copyright (c) Steve Scherf et al.
# Submitted via: dBpowerAMP V4.0
#
DISCID=8408160a
DTITLE=colleen rae - what you need is me
DYEAR=2005
DGENRE=Country
TTITLE0=you can get there from here
TTITLE1=what was it
TTITLE2=what you need is me
TTITLE3=family
TTITLE4=lets get lost
TTITLE5=one good reason
TTITLE6=the end of the dance
TTITLE7=lookin' for love
TTITLE8=i think, i hope, i pray
TTITLE9=strong enough to cry
EXTD=colleen rae what you need is me
EXTT0=
EXTT1=
EXTT2=
EXTT3=
EXTT4=
EXTT5=
EXTT6=
EXTT7=
EXTT8=
EXTT9=
PLAYORDER=
